<svg width="1200" height="720" viewBox="0 0 1200 720" xmlns="http://www.w3.org/2000/svg">
  <rect width="1200" height="720" fill="#f7f9fb" />
  <rect x="40" y="30" width="1120" height="80" rx="12" fill="#0f4c81" />
  <text x="600" y="85" text-anchor="middle" font-family="'Segoe UI', sans-serif" font-size="48" fill="#ffffff">Sales Dashboard Overview</text>

  <rect x="40" y="140" width="720" height="260" rx="16" fill="#ffffff" stroke="#d8dee6" />
  <text x="80" y="190" font-family="'Segoe UI', sans-serif" font-size="28" fill="#0f4c81">Monthly Revenue Trend</text>
  <polyline fill="none" stroke="#1f77b4" stroke-width="6" points="120,340 200,320 280,300 360,260 440,240 520,210 600,190 680,180 760,170" />
  <circle cx="120" cy="340" r="10" fill="#1f77b4" />
  <circle cx="200" cy="320" r="10" fill="#1f77b4" />
  <circle cx="280" cy="300" r="10" fill="#1f77b4" />
  <circle cx="360" cy="260" r="10" fill="#1f77b4" />
  <circle cx="440" cy="240" r="10" fill="#1f77b4" />
  <circle cx="520" cy="210" r="10" fill="#1f77b4" />
  <circle cx="600" cy="190" r="10" fill="#1f77b4" />
  <circle cx="680" cy="180" r="10" fill="#1f77b4" />
  <circle cx="760" cy="170" r="10" fill="#1f77b4" />
  <text x="120" y="370" font-family="'Segoe UI', sans-serif" font-size="18" fill="#7a869a">Jan</text>
  <text x="760" y="370" font-family="'Segoe UI', sans-serif" font-size="18" fill="#7a869a">Sep</text>

  <rect x="800" y="140" width="360" height="260" rx="16" fill="#ffffff" stroke="#d8dee6" />
  <text x="820" y="190" font-family="'Segoe UI', sans-serif" font-size="28" fill="#0f4c81">Category Mix</text>
  <circle cx="980" cy="305" r="105" fill="#f1f5f9" stroke="#d8dee6" stroke-width="2" />
  <path d="M980 305 L980 200 A105 105 0 0 1 1073 351 Z" fill="#ff7f0e" />
  <path d="M980 305 L1073 351 A105 105 0 0 1 905 400 Z" fill="#2ca02c" />
  <path d="M980 305 L905 400 A105 105 0 0 1 980 200 Z" fill="#9467bd" />
  <text x="890" y="460" font-family="'Segoe UI', sans-serif" font-size="20" fill="#444">Electronics 45%</text>
  <text x="890" y="490" font-family="'Segoe UI', sans-serif" font-size="20" fill="#444">Furniture 33%</text>
  <text x="890" y="520" font-family="'Segoe UI', sans-serif" font-size="20" fill="#444">Office Supplies 22%</text>

  <rect x="40" y="430" width="360" height="240" rx="16" fill="#ffffff" stroke="#d8dee6" />
  <text x="60" y="480" font-family="'Segoe UI', sans-serif" font-size="28" fill="#0f4c81">Top Performing Regions</text>
  <rect x="80" y="500" width="40" height="130" fill="#ff7f0e" />
  <rect x="150" y="540" width="40" height="90" fill="#ff7f0e" />
  <rect x="220" y="560" width="40" height="70" fill="#ff7f0e" />
  <rect x="290" y="580" width="40" height="50" fill="#ff7f0e" />
  <text x="80" y="650" font-family="'Segoe UI', sans-serif" font-size="18" fill="#7a869a">West</text>
  <text x="150" y="650" font-family="'Segoe UI', sans-serif" font-size="18" fill="#7a869a">South</text>
  <text x="220" y="650" font-family="'Segoe UI', sans-serif" font-size="18" fill="#7a869a">East</text>
  <text x="290" y="650" font-family="'Segoe UI', sans-serif" font-size="18" fill="#7a869a">Midwest</text>

  <rect x="440" y="430" width="720" height="240" rx="16" fill="#ffffff" stroke="#d8dee6" />
  <text x="460" y="480" font-family="'Segoe UI', sans-serif" font-size="28" fill="#0f4c81">Workshop Highlights</text>
  <text x="480" y="520" font-family="'Segoe UI', sans-serif" font-size="22" fill="#444">• Installation &amp; setup of Tableau</text>
  <text x="480" y="555" font-family="'Segoe UI', sans-serif" font-size="22" fill="#444">• Connecting to multiple data sources</text>
  <text x="480" y="590" font-family="'Segoe UI', sans-serif" font-size="22" fill="#444">• Building interactive dashboards</text>
  <text x="480" y="625" font-family="'Segoe UI', sans-serif" font-size="22" fill="#444">• Storytelling with business insights</text>
</svg>
